# xmcd
#
# Track frame offsets:
#       150
#       11341
#       28916
#       49568
#       65481
#       81940
#       94032
#       108750
#       121936
#       137783
#       153344
#       166448
#       174751
#       190842
#       206225
#       224350
#       233281
#       248952
#       266183
#       280029
#       303921
#
# Disc length: 4239 seconds
#
# Revision: 0
# Processed by: cddbd v1.4PL0 Copyright (c) Steve Scherf et al.
# Submitted via: CD-DA_X-Tractor v0.23
#
DISCID=19108d15
DTITLE=Waldemar Matuska - Levne knihy KMa
DYEAR=2002
DGENRE=
TTITLE0=Tereza
TTITLE1=Jo, tresne zraly
TTITLE2=Ach, ta laska nebeska
TTITLE3=Arie mesice
TTITLE4=Divoky kone
TTITLE5=Jen se s pisnickou smat
TTITLE6=Jezabel
TTITLE7=Kladivo
TTITLE8=Mam maly stan
TTITLE9=Mrholi
TTITLE10=Oliver Twist
TTITLE11=Pisen o koni
TTITLE12=Pisnicka pro Zuzanu
TTITLE13=Rudy pav
TTITLE14=Ruze z Texasu
TTITLE15=Souvenirs
TTITLE16=Tak abyste to vedela
TTITLE17=Tam za vodou v rakosi
TTITLE18=Veronika
TTITLE19=Vic nechtel by znat ani D'Artagnan
TTITLE20=Pada hvezda
EXTD=
EXTT0=
EXTT1=
EXTT2=
EXTT3=
EXTT4=
EXTT5=
EXTT6=
EXTT7=
EXTT8=
EXTT9=
EXTT10=
EXTT11=
EXTT12=
EXTT13=
EXTT14=
EXTT15=
EXTT16=
EXTT17=
EXTT18=
EXTT19=
EXTT20=
PLAYORDER=
